<svg width="98" height="25" viewBox="0 0 98 25" fill="none" xmlns="http://www.w3.org/2000/svg">
<path d="M6.0614 23.5887L0.660034 6.04276L5.01386 6.0752L8.22194 16.5184L11.4791 6.0752H15.1782L18.4354 16.5184L21.6435 6.0752H25.9973L20.596 23.5887H17.1915L13.3287 12.1725L9.46589 23.5887H6.0614Z" fill="#FDFAFF"/>
<path d="M36.2737 24.0752C34.4951 24.0752 32.9347 23.6806 31.5926 22.8914C30.2504 22.1022 29.2029 21.0157 28.4499 19.632C27.7079 18.2374 27.3369 16.6374 27.3369 14.832C27.3369 13.0049 27.7189 11.3995 28.4827 10.0157C29.2465 8.62114 30.2995 7.53465 31.6417 6.75628C32.9838 5.9779 34.5278 5.58871 36.2737 5.58871C38.0524 5.58871 39.6128 5.9833 40.9549 6.77249C42.308 7.56168 43.361 8.65357 44.1139 10.0482C44.8668 11.432 45.2433 13.0265 45.2433 14.832C45.2433 16.6482 44.8614 18.2536 44.0975 19.6482C43.3446 21.032 42.2916 22.1184 40.9386 22.9076C39.5964 23.686 38.0415 24.0752 36.2737 24.0752ZM36.2737 19.9563C37.7032 19.9563 38.7671 19.4806 39.4655 18.5292C40.1747 17.5671 40.5294 16.3347 40.5294 14.832C40.5294 13.2752 40.1693 12.032 39.4491 11.1022C38.7398 10.1725 37.6814 9.70763 36.2737 9.70763C35.3026 9.70763 34.506 9.92384 33.884 10.3563C33.2621 10.7887 32.7983 11.3887 32.4928 12.1563C32.1982 12.9238 32.0509 13.8157 32.0509 14.832C32.0509 16.3995 32.4055 17.6482 33.1148 18.5779C33.8349 19.4968 34.8879 19.9563 36.2737 19.9563Z" fill="#FDFAFF"/>
<path d="M48.8427 23.5887V6.0752H52.7709V10.3563L52.3454 9.80493C52.5745 9.19952 52.88 8.64817 53.262 8.15087C53.6439 7.65357 54.1131 7.24276 54.6696 6.91844C55.0951 6.65898 55.5589 6.45898 56.0608 6.31844C56.5628 6.16709 57.0811 6.0752 57.6158 6.04276C58.1505 5.99952 58.6851 6.01033 59.2198 6.0752V10.1941C58.7288 10.0428 58.1559 9.99411 57.5012 10.0482C56.8574 10.0914 56.2736 10.2374 55.7499 10.486C55.2261 10.7238 54.7842 11.0428 54.4241 11.4428C54.064 11.832 53.7912 12.2968 53.6057 12.8374C53.4202 13.3671 53.3274 13.9671 53.3274 14.6374V23.5887H48.8427Z" fill="#FDFAFF"/>
<path d="M62.3005 23.5887L62.3333 0.237357H66.8508V14.5076L72.8414 6.0752H78.341L71.9575 14.832L78.7665 23.5887H72.9723L66.8508 15.1563V23.5887H62.3005Z" fill="#FDFAFF"/>
<path d="M80.7227 2.75087V0.0751953H83.1288V2.75087H80.7227ZM80.7227 23.5887V6.0752H83.1288V23.5887H80.7227Z" fill="#42FFA1"/>
<path d="M97.66 23.5887C96.6671 23.7941 95.685 23.8752 94.7138 23.832C93.7536 23.7887 92.8916 23.5833 92.1277 23.2157C91.3748 22.8482 90.8019 22.2752 90.4091 21.4968C90.0927 20.8482 89.9181 20.1941 89.8853 19.5347C89.8635 18.8644 89.8526 18.1022 89.8526 17.2482V1.21033H92.2423V17.1509C92.2423 17.886 92.2478 18.5022 92.2587 18.9995C92.2805 19.486 92.3951 19.9184 92.6024 20.2968C92.9952 21.0211 93.6172 21.4536 94.4683 21.5941C95.3304 21.7347 96.3943 21.7022 97.66 21.4968V23.5887ZM86.0717 8.11844V6.0752H97.66V8.11844H86.0717Z" fill="#42FFA1"/>
</svg>
